<svg width="56" height="58" viewBox="0 0 56 58" fill="none" xmlns="http://www.w3.org/2000/svg">
<path d="M11.6504 1.77674C11.6504 1.2112 11.7786 0.773887 12.035 0.464027C12.293 0.15493 12.6548 0 13.1188 0H54.3043C55.23 0 55.6933 0.541874 55.6933 1.6241L55.617 10.5871C55.617 11.9777 54.9728 12.6722 53.6845 12.6722H30.9686C29.7841 12.6722 29.1918 13.1622 29.1918 14.1406V21.4033C29.1918 22.4351 29.6543 22.951 30.5809 22.951H44.7215C45.7533 22.951 46.2693 23.4662 46.2693 24.4958V33.9228C46.2693 34.7982 45.8052 35.2355 44.8772 35.2355H30.4282C30.068 35.2355 29.7719 35.3393 29.5399 35.5469C29.3078 35.753 29.1918 36.0354 29.1918 36.3956V55.0941C29.1918 55.9183 28.985 56.4984 28.5721 56.8342C28.1608 57.1685 27.5174 57.3348 26.6427 57.3348H13.7385C12.9646 57.3348 12.4235 57.1807 12.1144 56.8708C11.8046 56.5617 11.6504 56.0725 11.6504 55.4024V1.77674Z" fill="white"/>
<path d="M0 21.1011H56V39.7805H0V21.1011Z" fill="#F3D58A"/>
</svg>
