<svg width="607" height="58" viewBox="0 0 607 58" fill="none" xmlns="http://www.w3.org/2000/svg">
<path d="M11.2119 2.4787C11.2119 1.93872 11.3304 1.51728 11.5807 1.21436C11.8243 0.898276 12.1733 0.740234 12.6343 0.740234H52.8297C53.7252 0.740234 54.173 1.26704 54.173 2.32065L54.094 11.0656C54.094 12.4353 53.4684 13.1202 52.2238 13.1202H30.0453C28.8863 13.1202 28.3068 13.5943 28.3068 14.5426V21.6281C28.3068 22.6291 28.7612 23.1295 29.6765 23.1295H43.4788C44.4798 23.1295 44.9802 23.6432 44.9802 24.6573V33.85C44.9802 34.6929 44.5193 35.1144 43.6105 35.1144H29.5184C29.1629 35.1144 28.8731 35.2197 28.6492 35.4305C28.4187 35.628 28.3068 35.898 28.3068 36.247V54.5009C28.3068 55.3108 28.1027 55.8837 27.701 56.213C27.3124 56.5291 26.6869 56.6871 25.8308 56.6871H13.2401C12.4828 56.6871 11.956 56.5422 11.6597 56.2393C11.3568 55.943 11.2119 55.4623 11.2119 54.7906V2.4787Z" fill="black"/>
<path d="M85.7468 57.4483C80.268 57.4483 75.4806 56.2827 71.3913 53.945C67.2954 51.5941 64.1477 48.2753 61.9351 43.9884C59.7225 39.6883 58.6162 34.6507 58.6162 28.869C58.6162 23.0939 59.7291 18.0365 61.9614 13.697C64.1872 9.34424 67.348 5.97267 71.444 3.58229C75.5531 1.19849 80.3207 0 85.7468 0C91.1202 0 95.8417 1.19849 99.9179 3.58229C103.987 5.97267 107.142 9.34424 109.374 13.697C111.62 18.0365 112.746 23.0939 112.746 28.869C112.746 34.598 111.639 39.6159 109.427 43.9357C107.214 48.2555 104.066 51.5941 99.9969 53.945C95.9207 56.2827 91.1729 57.4483 85.7468 57.4483ZM85.7468 45.6742C87.9594 45.6742 89.711 45.1408 91.0148 44.0674C92.3318 42.9809 93.2867 41.2358 93.8859 38.8257C94.4786 36.4024 94.7815 33.1625 94.7815 29.1061C94.7815 22.8766 94.0769 18.4053 92.6743 15.6988C91.2651 12.9792 88.9603 11.6161 85.7468 11.6161C82.4806 11.6161 80.1231 12.9792 78.6876 15.6988C77.2652 18.4053 76.554 22.8766 76.554 29.1061C76.554 33.1625 76.8503 36.4024 77.4496 38.8257C78.062 41.2358 79.03 42.9809 80.347 44.0674C81.6772 45.1408 83.4815 45.6742 85.7468 45.6742Z" fill="black"/>
<path d="M167.893 54.2638C167.998 54.4745 168.051 54.7577 168.051 55.1067C168.051 55.5677 167.906 55.943 167.629 56.2393C167.366 56.5422 167.004 56.6871 166.549 56.6871H151.93C150.857 56.6871 150.172 56.1603 149.876 55.1067L142.79 35.6675C142.645 35.2658 142.402 34.9695 142.053 34.772C141.697 34.5612 141.164 34.4559 140.446 34.4559H136.995C136.692 34.4559 136.469 34.5612 136.31 34.772C136.152 34.9695 136.073 35.1341 136.073 35.2724V54.5009C136.073 55.3108 135.869 55.8837 135.468 56.213C135.079 56.5291 134.453 56.6871 133.597 56.6871H120.928C120.17 56.6871 119.65 56.5422 119.374 56.2393C119.11 55.943 118.979 55.4623 118.979 54.7906V2.4787C118.979 1.31972 119.453 0.740234 120.401 0.740234H145.582C152.865 0.740234 158.522 2.13627 162.545 4.92835C166.562 7.72042 168.577 11.6583 168.577 16.7288C168.577 20.2057 167.655 23.3073 165.812 26.027C163.981 28.7334 161.61 30.6365 158.7 31.7428C158.397 31.8877 158.252 32.1313 158.252 32.4803C158.252 32.6384 158.305 32.8689 158.41 33.1652L167.893 54.2638ZM144.897 23.2085C146.807 23.2085 148.276 22.7278 149.296 21.7598C150.33 20.7786 150.85 19.455 150.85 17.7824C150.85 15.9254 150.231 14.4833 149.007 13.4626C147.775 12.4288 146.254 11.9085 144.45 11.9085H137.812C137.16 11.9085 136.706 12.0271 136.442 12.251C136.192 12.4814 136.073 12.87 136.073 13.4099V21.6281C136.073 22.1944 136.159 22.5961 136.337 22.8398C136.528 23.09 136.87 23.2085 137.364 23.2085H144.897Z" fill="black"/>
<path d="M199.405 57.4483C194.17 57.4483 189.553 56.2498 185.55 53.8397C181.559 51.4163 178.471 48.058 176.278 43.7513C174.098 39.4512 173.012 34.519 173.012 28.948C173.012 23.2256 174.158 18.1748 176.462 13.8023C178.78 9.42984 182.007 6.04511 186.156 3.63497C190.298 1.21166 195.039 0 200.379 0C204.699 0 208.551 0.79021 211.943 2.37063C215.327 3.95105 218.067 5.99901 220.161 8.50793C222.248 11.0234 223.618 13.6904 224.27 16.5154C224.428 17.1146 224.507 17.5888 224.507 17.9378C224.507 18.3987 224.402 18.7016 224.191 18.8597C223.993 19.0046 223.671 19.0967 223.216 19.1494L210.336 21.0986C209.77 21.0986 209.414 21.0064 209.256 20.8089C209.111 20.5981 208.966 20.1965 208.808 19.5972C208.4 17.2793 207.465 15.3828 205.99 13.9077C204.515 12.4195 202.513 11.6688 199.984 11.6688C197.034 11.6688 194.782 12.9463 193.241 15.4881C191.713 18.0168 190.949 22.3564 190.949 28.5002C190.949 34.9273 191.773 39.3986 193.425 41.9075C195.092 44.423 197.482 45.6742 200.59 45.6742C204.66 45.6742 207.373 43.9225 208.729 40.4061L208.966 39.7212L209.124 39.1154C209.124 38.661 208.841 38.4306 208.281 38.4306H201.196C200.649 38.4306 200.261 38.312 200.037 38.0618C199.806 37.8181 199.694 37.3901 199.694 36.7711V29.5539C199.694 28.6978 200.221 28.2632 201.275 28.2632L222.374 28.4212C223.282 28.4212 223.987 28.632 224.481 29.0534C224.988 29.4748 225.245 30.0412 225.245 30.7392V55.3937C225.245 55.7493 225.12 56.0522 224.876 56.3156C224.626 56.5659 224.329 56.6844 223.98 56.6844H221.109C220.194 56.6844 219.384 56.2103 218.686 55.262L215.683 50.8895C215.63 50.7315 215.525 50.6525 215.367 50.6525C215.275 50.6525 215.104 50.7776 214.84 51.0212C213.536 52.2856 212.292 53.3524 211.1 54.2084C209.921 55.0513 208.347 55.8086 206.385 56.4737C204.436 57.119 202.105 57.4483 199.405 57.4483Z" fill="black"/>
<path d="M232.021 2.4787C232.021 1.31972 232.496 0.740234 233.444 0.740234H274.166C275.062 0.740234 275.509 1.26704 275.509 2.32065L275.43 11.0656C275.43 12.4353 274.778 13.1202 273.481 13.1202H250.855C249.696 13.1202 249.116 13.5943 249.116 14.5426V20.9433C249.116 21.4569 249.235 21.852 249.485 22.1286C249.749 22.4118 250.078 22.55 250.486 22.55H264.051C265.105 22.55 265.632 23.0505 265.632 24.0514V33.4023C265.632 34.2451 265.184 34.6666 264.288 34.6666H250.328C249.972 34.6666 249.683 34.772 249.459 34.9827C249.228 35.1802 249.116 35.4239 249.116 35.7202V43.2799C249.116 43.6684 249.176 43.9384 249.301 44.0964C249.439 44.2545 249.683 44.3335 250.038 44.3335H274.535C275.641 44.3335 276.194 44.8076 276.194 45.7559V55.0277C276.194 55.5413 276.043 55.943 275.746 56.2393C275.444 56.5422 274.989 56.6871 274.377 56.6871H234.05C233.292 56.6871 232.766 56.5422 232.469 56.2393C232.166 55.943 232.021 55.4623 232.021 54.7906V2.4787Z" fill="black"/>
<path d="M280.771 2.4787C280.771 1.9914 280.93 1.57654 281.246 1.2407C281.575 0.911446 282.049 0.740234 282.668 0.740234H327.736C328.349 0.740234 328.816 0.911446 329.132 1.2407C329.462 1.57654 329.633 1.9914 329.633 2.4787V11.4608C329.633 12.409 329.08 12.8831 327.973 12.8831H314.619C314.02 12.8831 313.723 13.14 313.723 13.647V55.0277C313.723 55.594 313.592 56.0154 313.328 56.292C313.078 56.5554 312.729 56.6871 312.275 56.6871H297.972C297.056 56.6871 296.602 56.1867 296.602 55.1857V13.9367C296.602 13.2387 296.325 12.8831 295.785 12.8831H282.51C281.351 12.8831 280.771 12.409 280.771 11.4608V2.4787Z" fill="black"/>
<path d="M333.826 2.4787C333.826 1.9914 333.984 1.57654 334.3 1.2407C334.63 0.911446 335.104 0.740234 335.723 0.740234H380.791C381.403 0.740234 381.871 0.911446 382.187 1.2407C382.516 1.57654 382.688 1.9914 382.688 2.4787V11.4608C382.688 12.409 382.134 12.8831 381.028 12.8831H367.674C367.074 12.8831 366.778 13.14 366.778 13.647V55.0277C366.778 55.594 366.646 56.0154 366.383 56.292C366.133 56.5554 365.784 56.6871 365.329 56.6871H351.026C350.111 56.6871 349.657 56.1867 349.657 55.1857V13.9367C349.657 13.2387 349.38 12.8831 348.84 12.8831H335.565C334.406 12.8831 333.826 12.409 333.826 11.4608V2.4787Z" fill="black"/>
<path d="M388.012 56.6871C387.604 56.6871 387.281 56.5554 387.038 56.292C386.787 56.0154 386.669 55.6203 386.669 55.1067C386.669 54.7577 386.735 54.356 386.88 53.895L405.134 2.4787C405.377 1.83336 405.647 1.38557 405.95 1.13534C406.246 0.871936 406.727 0.740234 407.399 0.740234H422.228C422.841 0.740234 423.387 0.937788 423.862 1.31972C424.336 1.68849 424.691 2.18237 424.941 2.79478L443.037 54.1321C443.143 54.5404 443.195 54.8367 443.195 55.0277C443.195 55.4886 443.09 55.8837 442.879 56.213C442.682 56.5291 442.385 56.6871 441.984 56.6871H427.207C426.364 56.6871 425.811 56.2591 425.547 55.3964L422.624 46.7305C422.465 46.3815 422.321 46.1444 422.202 46.0193C422.077 45.9007 421.84 45.8349 421.491 45.8349H405.502C404.903 45.8349 404.528 46.1115 404.37 46.6514L401.288 55.5545C400.985 56.3118 400.379 56.6871 399.47 56.6871H388.012ZM417.724 33.0072C418.264 33.0072 418.541 32.7635 418.541 32.2696C418.541 32.1643 418.488 31.914 418.383 31.5058L413.879 18.6253C413.773 18.3619 413.615 18.2302 413.404 18.2302C413.207 18.2302 413.062 18.3619 412.957 18.6253L408.373 31.4267C408.268 31.6375 408.215 31.8943 408.215 32.1906C408.215 32.7372 408.512 33.0072 409.111 33.0072H417.724Z" fill="black"/>
<path d="M450.651 56.6871C450.137 56.6871 449.715 56.5291 449.386 56.213C449.07 55.8837 448.912 55.4886 448.912 55.0277V2.71576C448.912 2.15603 449.083 1.68849 449.439 1.31972C449.788 0.937788 450.236 0.740234 450.782 0.740234H473.251C481.1 0.740234 487.04 1.9914 491.083 4.48056C495.139 6.97631 497.168 10.6574 497.168 15.5172C497.168 18.1907 496.437 20.4428 494.981 22.2866C493.519 24.1173 490.958 25.8821 487.29 27.581C487.185 27.6337 487.132 27.7259 487.132 27.8444C487.132 27.9696 487.185 28.0552 487.29 28.1078C491.346 29.6224 494.224 31.4136 495.93 33.4813C497.648 35.5358 498.511 38.1962 498.511 41.4624C498.511 46.6449 496.535 50.484 492.584 52.9731C488.647 55.4491 482.608 56.6871 474.462 56.6871H450.651ZM474.462 22.6027C476.214 22.6027 477.623 22.1286 478.677 21.1803C479.73 20.2321 480.257 19.0073 480.257 17.4927C480.257 15.8793 479.651 14.5689 478.44 13.568C477.241 12.567 475.74 12.0666 473.935 12.0666H467.745C467.094 12.0666 466.639 12.1851 466.376 12.409C466.126 12.6197 466.007 13.0082 466.007 13.568V20.9433C466.007 21.5623 466.099 21.9903 466.297 22.234C466.507 22.4842 466.837 22.6027 467.298 22.6027H474.462ZM474.093 45.3871C476.148 45.3871 477.761 44.8076 478.94 43.6487C480.132 42.4897 480.731 41.1331 480.731 39.5659C480.731 38.025 480.152 36.7475 478.993 35.7465C477.834 34.7324 476.319 34.2188 474.462 34.2188H467.745C467.094 34.2188 466.639 34.3505 466.376 34.6139C466.126 34.8641 466.007 35.2593 466.007 35.7992V43.7277C466.007 44.3269 466.099 44.7549 466.297 45.0183C466.507 45.2686 466.837 45.3871 467.298 45.3871H474.093Z" fill="black"/>
<path d="M504.604 2.4787C504.604 1.93872 504.722 1.51728 504.972 1.21436C505.216 0.898276 505.565 0.740234 506.026 0.740234H520.355C521.251 0.740234 521.698 1.26704 521.698 2.32065V43.2799C521.698 43.6684 521.758 43.9384 521.883 44.0964C522.021 44.2545 522.265 44.3335 522.62 44.3335H545.299C546.458 44.3335 547.038 44.8076 547.038 45.7559V55.0277C547.038 55.5413 546.867 55.943 546.537 56.2393C546.221 56.5422 545.76 56.6871 545.168 56.6871H506.632C505.874 56.6871 505.348 56.5422 505.051 56.2393C504.748 55.943 504.604 55.4623 504.604 54.7906V2.4787Z" fill="black"/>
<path d="M553.062 2.4787C553.062 1.31972 553.536 0.740234 554.484 0.740234H595.206C596.102 0.740234 596.549 1.26704 596.549 2.32065L596.47 11.0656C596.47 12.4353 595.818 13.1202 594.521 13.1202H571.895C570.736 13.1202 570.156 13.5943 570.156 14.5426V20.9433C570.156 21.4569 570.275 21.852 570.525 22.1286C570.789 22.4118 571.118 22.55 571.526 22.55H585.091C586.145 22.55 586.672 23.0505 586.672 24.0514V33.4023C586.672 34.2451 586.224 34.6666 585.328 34.6666H571.368C571.012 34.6666 570.723 34.772 570.499 34.9827C570.268 35.1802 570.156 35.4239 570.156 35.7202V43.2799C570.156 43.6684 570.216 43.9384 570.341 44.0964C570.479 44.2545 570.723 44.3335 571.078 44.3335H595.575C596.681 44.3335 597.234 44.8076 597.234 45.7559V55.0277C597.234 55.5413 597.083 55.943 596.786 56.2393C596.484 56.5422 596.029 56.6871 595.417 56.6871H555.09C554.332 56.6871 553.806 56.5422 553.509 56.2393C553.206 55.943 553.062 55.4623 553.062 54.7906V2.4787Z" fill="black"/>
<path d="M0 21.8179H607V40.0388H0V21.8179Z" fill="#F3D58A"/>
</svg>
