<svg width="32" height="32" viewBox="0 0 32 32" fill="none" xmlns="http://www.w3.org/2000/svg">
<path d="M0 16C0 24.8366 7.16344 32 16 32C24.8366 32 32 24.8366 32 16C32 7.16344 24.8366 0 16 0C7.16344 0 0 7.16344 0 16Z" fill="#231E1B"/>
<path fill-rule="evenodd" clip-rule="evenodd" d="M15.9755 8.19189C11.5719 8.19189 8 11.7638 8 16.1674C8 19.6904 10.2997 22.6751 13.4312 23.7515C13.8226 23.8005 13.9694 23.5558 13.9694 23.3601C13.9694 23.1644 13.9694 22.6751 13.9694 21.9901C11.7676 22.4794 11.2783 20.9136 11.2783 20.9136C10.9358 19.9839 10.3976 19.7393 10.3976 19.7393C9.66361 19.25 10.4465 19.25 10.4465 19.25C11.2294 19.2989 11.6697 20.0818 11.6697 20.0818C12.4037 21.305 13.5291 20.9625 13.9694 20.7668C14.0183 20.2286 14.263 19.8861 14.4587 19.6904C12.6972 19.4946 10.8379 18.8096 10.8379 15.7271C10.8379 14.8463 11.1315 14.1613 11.6697 13.5742C11.6208 13.4274 11.3272 12.5956 11.7676 11.5191C11.7676 11.5191 12.4526 11.3234 13.9694 12.3509C14.6055 12.1552 15.2905 12.1063 15.9755 12.1063C16.6605 12.1063 17.3456 12.2041 17.9817 12.3509C19.4985 11.3234 20.1835 11.5191 20.1835 11.5191C20.6239 12.5956 20.3303 13.4274 20.2813 13.6231C20.7706 14.1613 21.1131 14.8953 21.1131 15.776C21.1131 18.8586 19.2538 19.4946 17.4924 19.6904C17.7859 19.935 18.0306 20.4243 18.0306 21.1583C18.0306 22.2347 18.0306 23.0665 18.0306 23.3601C18.0306 23.5558 18.1774 23.8005 18.5688 23.7515C21.7492 22.6751 24 19.6904 24 16.1674C23.9511 11.7638 20.3792 8.19189 15.9755 8.19189Z" fill="white"/>
</svg>
