<svg width="32" height="32" viewBox="0 0 32 32" fill="none" xmlns="http://www.w3.org/2000/svg">
<path d="M0 16C0 24.8366 7.16344 32 16 32C24.8366 32 32 24.8366 32 16C32 7.16344 24.8366 0 16 0C7.16344 0 0 7.16344 0 16Z" fill="#E786D7"/>
<path d="M16.0002 9.2002C18.2002 9.2002 18.5002 9.2002 19.4002 9.2002C20.2002 9.2002 20.6002 9.4002 20.9002 9.5002C21.3002 9.7002 21.6002 9.8002 21.9002 10.1002C22.2002 10.4002 22.4002 10.7002 22.5002 11.1002C22.6002 11.4002 22.7002 11.8002 22.8002 12.6002C22.8002 13.5002 22.8002 13.7002 22.8002 16.0002C22.8002 18.3002 22.8002 18.5002 22.8002 19.4002C22.8002 20.2002 22.6002 20.6002 22.5002 20.9002C22.3002 21.3002 22.2002 21.6002 21.9002 21.9002C21.6002 22.2002 21.3002 22.4002 20.9002 22.5002C20.6002 22.6002 20.2002 22.7002 19.4002 22.8002C18.5002 22.8002 18.3002 22.8002 16.0002 22.8002C13.7002 22.8002 13.5002 22.8002 12.6002 22.8002C11.8002 22.8002 11.4002 22.6002 11.1002 22.5002C10.7002 22.3002 10.4002 22.2002 10.1002 21.9002C9.8002 21.6002 9.6002 21.3002 9.5002 20.9002C9.4002 20.6002 9.3002 20.2002 9.2002 19.4002C9.2002 18.5002 9.2002 18.3002 9.2002 16.0002C9.2002 13.7002 9.2002 13.5002 9.2002 12.6002C9.2002 11.8002 9.4002 11.4002 9.5002 11.1002C9.7002 10.7002 9.8002 10.4002 10.1002 10.1002C10.4002 9.8002 10.7002 9.6002 11.1002 9.5002C11.4002 9.4002 11.8002 9.3002 12.6002 9.2002C13.5002 9.2002 13.8002 9.2002 16.0002 9.2002ZM16.0002 7.7002C13.7002 7.7002 13.5002 7.7002 12.6002 7.7002C11.7002 7.7002 11.1002 7.9002 10.6002 8.1002C10.1002 8.3002 9.6002 8.6002 9.1002 9.1002C8.6002 9.6002 8.4002 10.0002 8.1002 10.6002C7.9002 11.1002 7.8002 11.7002 7.7002 12.6002C7.7002 13.5002 7.7002 13.8002 7.7002 16.0002C7.7002 18.3002 7.7002 18.5002 7.7002 19.4002C7.7002 20.3002 7.9002 20.9002 8.1002 21.4002C8.3002 21.9002 8.6002 22.4002 9.1002 22.9002C9.6002 23.4002 10.0002 23.6002 10.6002 23.9002C11.1002 24.1002 11.7002 24.2002 12.6002 24.3002C13.5002 24.3002 13.8002 24.3002 16.0002 24.3002C18.2002 24.3002 18.5002 24.3002 19.4002 24.3002C20.3002 24.3002 20.9002 24.1002 21.4002 23.9002C21.9002 23.7002 22.4002 23.4002 22.9002 22.9002C23.4002 22.4002 23.6002 22.0002 23.9002 21.4002C24.1002 20.9002 24.2002 20.3002 24.3002 19.4002C24.3002 18.5002 24.3002 18.2002 24.3002 16.0002C24.3002 13.8002 24.3002 13.5002 24.3002 12.6002C24.3002 11.7002 24.1002 11.1002 23.9002 10.6002C23.7002 10.1002 23.4002 9.6002 22.9002 9.1002C22.4002 8.6002 22.0002 8.4002 21.4002 8.1002C20.9002 7.9002 20.3002 7.8002 19.4002 7.7002C18.5002 7.7002 18.3002 7.7002 16.0002 7.7002Z" fill="white"/>
<path d="M16.0002 11.7002C13.6002 11.7002 11.7002 13.6002 11.7002 16.0002C11.7002 18.4002 13.6002 20.3002 16.0002 20.3002C18.4002 20.3002 20.3002 18.4002 20.3002 16.0002C20.3002 13.6002 18.4002 11.7002 16.0002 11.7002ZM16.0002 18.8002C14.5002 18.8002 13.2002 17.6002 13.2002 16.0002C13.2002 14.5002 14.4002 13.2002 16.0002 13.2002C17.5002 13.2002 18.8002 14.4002 18.8002 16.0002C18.8002 17.5002 17.5002 18.8002 16.0002 18.8002Z" fill="white"/>
<path d="M20.4002 12.6002C20.9525 12.6002 21.4002 12.1525 21.4002 11.6002C21.4002 11.0479 20.9525 10.6002 20.4002 10.6002C19.8479 10.6002 19.4002 11.0479 19.4002 11.6002C19.4002 12.1525 19.8479 12.6002 20.4002 12.6002Z" fill="white"/>
</svg>
