<svg width="32" height="32" viewBox="0 0 32 32" fill="none" xmlns="http://www.w3.org/2000/svg">
<path d="M0 16C0 24.8366 7.16344 32 16 32C24.8366 32 32 24.8366 32 16C32 7.16344 24.8366 0 16 0C7.16344 0 0 7.16344 0 16Z" fill="#2867B2"/>
<path d="M11.6 24H8.2V13.3H11.6V24ZM9.9 11.8C8.8 11.8 8 11 8 9.9C8 8.8 8.9 8 9.9 8C11 8 11.8 8.8 11.8 9.9C11.8 11 11 11.8 9.9 11.8ZM24 24H20.6V18.2C20.6 16.5 19.9 16 18.9 16C17.9 16 16.9 16.8 16.9 18.3V24H13.5V13.3H16.7V14.8C17 14.1 18.2 13 19.9 13C21.8 13 23.8 14.1 23.8 17.4V24H24Z" fill="white"/>
</svg>
