<svg width="32" height="32" viewBox="0 0 32 32" fill="none" xmlns="http://www.w3.org/2000/svg">
<path d="M32 16C32 7.16344 24.8366 0 16 0C7.16344 0 0 7.16344 0 16C0 24.8366 7.16344 32 16 32C24.8366 32 32 24.8366 32 16Z" fill="#4A154B"/>
<path d="M11.3758 18.1146C11.3758 19.0446 10.6242 19.7962 9.69422 19.7962C8.76429 19.7962 8.0127 19.0446 8.0127 18.1146C8.0127 17.1847 8.76429 16.4331 9.69422 16.4331H11.3758V18.1146Z" fill="#E01E5A"/>
<path d="M12.2168 18.1146C12.2168 17.1847 12.9684 16.4331 13.8983 16.4331C14.8283 16.4331 15.5799 17.1847 15.5799 18.1146V22.3185C15.5799 23.2484 14.8283 24 13.8983 24C12.9684 24 12.2168 23.2484 12.2168 22.3185V18.1146Z" fill="#E01E5A"/>
<path d="M13.8983 11.3631C12.9684 11.3631 12.2168 10.6115 12.2168 9.68153C12.2168 8.75159 12.9684 8 13.8983 8C14.8283 8 15.5799 8.75159 15.5799 9.68153V11.3631H13.8983Z" fill="#36C5F0"/>
<path d="M13.8981 12.2168C14.828 12.2168 15.5796 12.9684 15.5796 13.8983C15.5796 14.8283 14.828 15.5799 13.8981 15.5799H9.68153C8.75159 15.5799 8 14.8283 8 13.8983C8 12.9684 8.75159 12.2168 9.68153 12.2168H13.8981Z" fill="#36C5F0"/>
<path d="M20.6367 13.8983C20.6367 12.9684 21.3883 12.2168 22.3182 12.2168C23.2482 12.2168 23.9998 12.9684 23.9998 13.8983C23.9998 14.8283 23.2482 15.5799 22.3182 15.5799H20.6367V13.8983Z" fill="#2EB67D"/>
<path d="M19.7967 13.8981C19.7967 14.828 19.0451 15.5796 18.1151 15.5796C17.1852 15.5796 16.4336 14.828 16.4336 13.8981V9.68153C16.4336 8.75159 17.1852 8 18.1151 8C19.0451 8 19.7967 8.75159 19.7967 9.68153V13.8981Z" fill="#2EB67D"/>
<path d="M18.1151 20.6367C19.0451 20.6367 19.7967 21.3883 19.7967 22.3182C19.7967 23.2482 19.0451 23.9998 18.1151 23.9998C17.1852 23.9998 16.4336 23.2482 16.4336 22.3182V20.6367H18.1151Z" fill="#ECB22E"/>
<path d="M18.1151 19.7962C17.1852 19.7962 16.4336 19.0446 16.4336 18.1146C16.4336 17.1847 17.1852 16.4331 18.1151 16.4331H22.3317C23.2616 16.4331 24.0132 17.1847 24.0132 18.1146C24.0132 19.0446 23.2616 19.7962 22.3317 19.7962H18.1151Z" fill="#ECB22E"/>
</svg>
