<svg width="32" height="32" viewBox="0 0 32 32" fill="none" xmlns="http://www.w3.org/2000/svg">
<path d="M0 16C0 24.8366 7.16344 32 16 32C24.8366 32 32 24.8366 32 16C32 7.16344 24.8366 0 16 0C7.16344 0 0 7.16344 0 16Z" fill="#0088CC"/>
<path d="M8.09992 15.7083C12.3949 13.8371 15.2589 12.6034 16.6919 12.0074C20.7834 10.3056 21.6335 10.01 22.1877 10.0001C22.3095 9.99805 22.582 10.0283 22.7586 10.1715C22.9076 10.2924 22.9486 10.4558 22.9683 10.5705C22.9879 10.6851 23.0123 10.9464 22.9929 11.1505C22.7712 13.4801 21.8118 19.1335 21.3237 21.7427C21.1172 22.8468 20.7105 23.217 20.3168 23.2532C19.4613 23.3319 18.8116 22.6878 17.9829 22.1446C16.6862 21.2946 15.9537 20.7654 14.695 19.936C13.2404 18.9774 14.1834 18.4506 15.0124 17.5896C15.2293 17.3643 18.999 13.9355 19.0719 13.6244C19.0811 13.5855 19.0895 13.4405 19.0034 13.3639C18.9172 13.2874 18.7901 13.3136 18.6983 13.3344C18.5683 13.3639 16.4968 14.7331 12.4839 17.4419C11.8959 17.8457 11.3633 18.0424 10.8862 18.0321C10.3601 18.0207 9.34822 17.7346 8.59598 17.4901C7.67333 17.1902 6.94002 17.0316 7.00388 16.5223C7.03714 16.257 7.40248 15.9856 8.09992 15.7083Z" fill="white"/>
</svg>
