<svg width="32" height="32" viewBox="0 0 32 32" fill="none" xmlns="http://www.w3.org/2000/svg">
<path d="M0 16C0 7.16344 7.16344 0 16 0C24.8366 0 32 7.16344 32 16C32 24.8366 24.8366 32 16 32C7.16344 32 0 24.8366 0 16Z" fill="black"/>
<path d="M14.4984 14.3001V13.6772C14.285 13.6487 14.068 13.6309 13.844 13.6309C11.173 13.6274 9 15.8022 9 18.4789C9 20.1199 9.818 21.5722 11.0699 22.4514C10.2626 21.5864 9.76821 20.4224 9.76821 19.1481C9.76821 16.5105 11.8808 14.3606 14.4984 14.3001Z" fill="#25F4EE"/>
<path d="M14.6157 21.3624C15.8072 21.3624 16.7816 20.412 16.8243 19.2303L16.8279 8.66919H18.7555C18.7164 8.45206 18.695 8.22781 18.695 8H16.0632L16.0597 18.5611C16.017 19.7428 15.0425 20.6932 13.8511 20.6932C13.4812 20.6932 13.1327 20.6007 12.8232 20.4369C13.2216 20.9958 13.876 21.3624 14.6157 21.3624Z" fill="#25F4EE"/>
<path d="M22.3585 12.2535V11.6662C21.6223 11.6662 20.9394 11.4491 20.3633 11.0718C20.8754 11.6591 21.5689 12.0863 22.3585 12.2535Z" fill="#25F4EE"/>
<path d="M20.3627 11.0716C19.8008 10.4273 19.4629 9.5873 19.4629 8.66895H18.7588C18.9401 9.67273 19.5377 10.5341 20.3627 11.0716Z" fill="#FE2C55"/>
<path d="M13.8479 16.2617C12.628 16.2617 11.6357 17.2549 11.6357 18.4758C11.6357 19.3265 12.1194 20.0669 12.8236 20.4371C12.5604 20.074 12.4039 19.6291 12.4039 19.1449C12.4039 17.924 13.3962 16.9309 14.6161 16.9309C14.8437 16.9309 15.0642 16.9701 15.2705 17.0342V14.3432C15.0571 14.3147 14.8402 14.2969 14.6161 14.2969C14.577 14.2969 14.5414 14.3004 14.5023 14.3004V16.365C14.2925 16.3009 14.0755 16.2617 13.8479 16.2617Z" fill="#FE2C55"/>
<path d="M22.3587 12.2534V14.3001C20.993 14.3001 19.7269 13.8623 18.6955 13.1219V18.479C18.6955 21.1522 16.5225 23.3306 13.8479 23.3306C12.8166 23.3306 11.8563 23.0031 11.0703 22.4514C11.9559 23.4018 13.2184 23.9998 14.6162 23.9998C17.2871 23.9998 19.4637 21.825 19.4637 19.1482V13.7911C20.4951 14.5315 21.7612 14.9693 23.1269 14.9693V12.3353C22.8601 12.3353 22.6041 12.3068 22.3587 12.2534Z" fill="#FE2C55"/>
<path d="M18.6954 18.4789V13.1219C19.7268 13.8623 20.9929 14.3001 22.3586 14.3001V12.2534C21.5691 12.0861 20.8755 11.6589 20.3634 11.0716C19.5383 10.5341 18.9444 9.67273 18.7558 8.66895H16.8282L16.8247 19.23C16.782 20.4117 15.8075 21.3621 14.6161 21.3621C13.8763 21.3621 13.2255 20.9955 12.82 20.4402C12.1158 20.0665 11.6322 19.3297 11.6322 18.4789C11.6322 17.258 12.6244 16.2649 13.8443 16.2649C14.0719 16.2649 14.2924 16.3041 14.4987 16.3681V14.3036C11.8811 14.3606 9.76855 16.5105 9.76855 19.1481C9.76855 20.4224 10.2629 21.5829 11.0702 22.4514C11.8562 23.0031 12.8165 23.3306 13.8479 23.3306C16.5188 23.3306 18.6954 21.1521 18.6954 18.4789Z" fill="white"/>
</svg>
