<svg width="32" height="32" viewBox="0 0 32 32" fill="none" xmlns="http://www.w3.org/2000/svg">
<path d="M0 16C0 24.8366 7.16344 32 16 32C24.8366 32 32 24.8366 32 16C32 7.16344 24.8366 0 16 0C7.16344 0 0 7.16344 0 16Z" fill="#1DA1F2"/>
<path d="M24 11C23.4 11.3 22.8 11.4 22.1 11.5C22.8 11.1 23.3 10.5 23.5 9.7C22.9 10.1 22.2 10.3 21.4 10.5C20.8 9.9 19.9 9.5 19 9.5C16.9 9.5 15.3 11.5 15.8 13.5C13.1 13.4 10.7 12.1 9 10.1C8.1 11.6 8.6 13.5 10 14.5C9.5 14.5 9 14.3 8.5 14.1C8.5 15.6 9.6 17 11.1 17.4C10.6 17.5 10.1 17.6 9.6 17.5C10 18.8 11.2 19.8 12.7 19.8C11.5 20.7 9.7 21.2 8 21C9.5 21.9 11.2 22.5 13 22.5C19.1 22.5 22.5 17.4 22.3 12.7C23 12.3 23.6 11.7 24 11Z" fill="white"/>
</svg>
