<svg width="32" height="32" viewBox="0 0 32 32" fill="none" xmlns="http://www.w3.org/2000/svg">
<path d="M32 16C32 7.16344 24.8366 0 16 0C7.16344 0 0 7.16344 0 16C0 24.8366 7.16344 32 16 32C24.8366 32 32 24.8366 32 16Z" fill="#B888FE"/>
<path d="M12.0017 9.42822L9.14453 12.2854V22.5711H12.5731V25.4282L15.4302 22.5711H17.716L22.8588 17.4282V9.42822H12.0017ZM21.716 16.8568L19.4302 19.1425H17.1445L15.1445 21.1425V19.1425H12.5731V10.5711H21.716V16.8568Z" fill="white"/>
<path d="M20.0017 12.5711H18.8588V15.9997H20.0017V12.5711Z" fill="white"/>
<path d="M16.8588 12.5711H15.716V15.9997H16.8588V12.5711Z" fill="white"/>
</svg>
