<svg width="32" height="32" viewBox="0 0 32 32" fill="none" xmlns="http://www.w3.org/2000/svg">
<path d="M0 16C0 24.8366 7.16344 32 16 32C24.8366 32 32 24.8366 32 16C32 7.16344 24.8366 0 16 0C7.16344 0 0 7.16344 0 16Z" fill="#7CE1A2"/>
<path fill-rule="evenodd" clip-rule="evenodd" d="M21.6 10.3C20.1 8.8 18.1 8 16 8C11.6 8 8 11.6 8 16C8 17.4 8.40001 18.8 9.10001 20L8 24L12.2 22.9C13.4 23.5 14.7 23.9 16 23.9C20.4 23.9 24 20.3 24 15.9C24 13.8 23.1 11.8 21.6 10.3ZM16 22.6C14.8 22.6 13.6 22.3 12.6 21.7L12.4 21.6L9.89999 22.3L10.6 19.9L10.4 19.6C9.69999 18.5 9.39999 17.3 9.39999 16.1C9.39999 12.5 12.4 9.5 16 9.5C17.8 9.5 19.4 10.2 20.7 11.4C22 12.7 22.6 14.3 22.6 16.1C22.6 19.6 19.7 22.6 16 22.6ZM19.6 17.6C19.4 17.5 18.4 17 18.2 17C18 16.9 17.9 16.9 17.8 17.1C17.7 17.3 17.3 17.7 17.2 17.9C17.1 18 17 18 16.8 18C16.6 17.9 16 17.7 15.2 17C14.6 16.5 14.2 15.8 14.1 15.6C14 15.4 14.1 15.3 14.2 15.2C14.3 15.1 14.4 15 14.5 14.9C14.6 14.8 14.6 14.7 14.7 14.6C14.8 14.5 14.7 14.4 14.7 14.3C14.7 14.2 14.3 13.2 14.1 12.8C14 12.5 13.8 12.5 13.7 12.5C13.6 12.5 13.5 12.5 13.3 12.5C13.2 12.5 13 12.5 12.8 12.7C12.6 12.9 12.1 13.4 12.1 14.4C12.1 15.4 12.8 16.3 12.9 16.5C13 16.6 14.3 18.7 16.3 19.5C18 20.2 18.3 20 18.7 20C19.1 20 19.9 19.5 20 19.1C20.2 18.6 20.2 18.2 20.1 18.2C20 17.7 19.8 17.7 19.6 17.6Z" fill="white"/>
</svg>
