<?xml version="1.0" standalone="no"?>
<!DOCTYPE svg PUBLIC "-//W3C//DTD SVG 20010904//EN"
 "http://www.w3.org/TR/2001/REC-SVG-20010904/DTD/svg10.dtd">
<svg version="1.0" xmlns="http://www.w3.org/2000/svg"
 width="32.000000pt" height="32.000000pt" viewBox="0 0 32.000000 32.000000"
 preserveAspectRatio="xMidYMid meet">

<g transform="translate(0.000000,32.000000) scale(0.100000,-0.100000)"
fill="#000000" stroke="none">
<path d="M67 294 c-20 -21 -2 -29 63 -29 57 0 70 3 68 15 -2 11 -19 16 -64 18
-33 2 -63 0 -67 -4z"/>
<path d="M7 244 c-17 -18 -3 -33 41 -47 83 -25 217 -5 210 31 -3 15 -21 17
-124 20 -66 1 -123 -1 -127 -4z"/>
<path d="M0 145 c0 -68 11 -75 112 -75 72 0 73 1 88 33 9 20 24 33 38 35 17 3
22 10 22 33 0 16 -1 29 -3 29 -19 0 -105 -37 -115 -49 -11 -15 -13 -15 -25 0
-9 12 -95 49 -114 49 -2 0 -3 -25 -3 -55z"/>
<path d="M120 165 c0 -8 5 -15 10 -15 6 0 10 7 10 15 0 8 -4 15 -10 15 -5 0
-10 -7 -10 -15z"/>
<path d="M217 112 c-22 -24 -21 -55 1 -75 38 -35 102 -9 102 40 0 47 -71 71
-103 35z m81 -4 c15 -15 15 -51 0 -66 -15 -15 -61 -15 -76 0 -15 15 -15 51 0
66 7 7 24 12 38 12 14 0 31 -5 38 -12z"/>
<path d="M225 91 c-9 -30 5 -51 35 -51 30 0 44 21 35 51 -4 13 -16 19 -35 19
-19 0 -31 -6 -35 -19z"/>
</g>
</svg>
