<svg width="25" height="26" viewBox="0 0 25 26" fill="none" xmlns="http://www.w3.org/2000/svg">
<path d="M4.60301 12.643H6.27613V14.3161H4.60301V12.643Z" fill="#000000"/>
<path d="M0 23.2859C0 24.7712 1.20831 25.9795 2.69356 25.9795H22.3063C23.7917 25.9795 25 24.7712 25 23.2859V8.72057H0V23.2859ZM10.1465 11.1782H21.1296C21.534 11.1782 21.862 11.5061 21.862 11.9106C21.862 12.315 21.534 12.6431 21.1296 12.6431H10.1465C9.74197 12.6431 9.4141 12.315 9.4141 11.9106C9.4141 11.5061 9.74197 11.1782 10.1465 11.1782ZM10.1465 14.3162H21.1296C21.534 14.3162 21.862 14.6441 21.862 15.0486C21.862 15.4532 21.534 15.781 21.1296 15.781H10.1465C9.74197 15.781 9.4141 15.4532 9.4141 15.0486C9.4141 14.6441 9.74197 14.3162 10.1465 14.3162ZM3.13816 11.9106C3.13816 11.5061 3.46603 11.1782 3.87058 11.1782H7.00855C7.4131 11.1782 7.74097 11.5061 7.74097 11.9106V15.0486C7.74097 15.4532 7.4131 15.781 7.00855 15.781H3.87058C3.46603 15.781 3.13816 15.4532 3.13816 15.0486V11.9106ZM3.87058 17.4542H21.1296C21.534 17.4542 21.862 17.782 21.862 18.1866C21.862 18.5912 21.534 18.919 21.1296 18.919H3.87058C3.46603 18.919 3.13816 18.5912 3.13816 18.1866C3.13816 17.782 3.46584 17.4542 3.87058 17.4542ZM3.87058 20.5924H21.1296C21.534 20.5924 21.862 20.9202 21.862 21.3248C21.862 21.7291 21.534 22.0572 21.1296 22.0572H3.87058C3.46603 22.0572 3.13816 21.7291 3.13816 21.3248C3.13816 20.9202 3.46584 20.5924 3.87058 20.5924Z" fill="#000000"/>
<path d="M22.3063 0.979492H2.69356C1.20831 0.979492 0 2.1878 0 3.67306V7.25546H25V3.67306C25 2.1878 23.7917 0.979492 22.3063 0.979492ZM17.9914 5.58233H7.00836C6.604 5.58233 6.27594 5.25445 6.27594 4.8499C6.27594 4.44535 6.604 4.11748 7.00836 4.11748H17.9914C18.396 4.11748 18.7239 4.44535 18.7239 4.8499C18.7239 5.25445 18.396 5.58233 17.9914 5.58233Z" fill="#000000"/>
</svg>
