<svg width="28" height="27" viewBox="0 0 28 27" fill="none" xmlns="http://www.w3.org/2000/svg">
<path d="M27.2479 11.3726C27.2472 11.372 27.2466 11.3714 27.2459 11.3708L15.823 0.705376C15.3361 0.250552 14.6888 0 14.0002 0C13.3116 0 12.6643 0.250353 12.1771 0.705177L0.760177 11.3652C0.756332 11.3688 0.752486 11.3726 0.74864 11.3762C-0.251218 12.3152 -0.249508 13.8386 0.753554 14.7752C1.21182 15.2033 1.81708 15.4512 2.46421 15.4772C2.49049 15.4796 2.51698 15.4808 2.54368 15.4808H2.99896V23.3299C2.99896 24.8831 4.3524 26.1468 6.01627 26.1468H10.4853C10.9382 26.1468 11.3057 25.8039 11.3057 25.3808V19.2271C11.3057 18.5183 11.9231 17.9418 12.6822 17.9418H15.3181C16.0772 17.9418 16.6947 18.5183 16.6947 19.2271V25.3808C16.6947 25.8039 17.0619 26.1468 17.5151 26.1468H21.9841C23.6479 26.1468 25.0014 24.8831 25.0014 23.3299V15.4808H25.4236C26.1119 15.4808 26.7593 15.2304 27.2466 14.7756C28.2507 13.8374 28.2511 12.3114 27.2479 11.3726V11.3726Z" fill="#4D4D4D"/>
</svg>
