<svg width="28" height="26" viewBox="0 0 28 26" fill="none" xmlns="http://www.w3.org/2000/svg">
<path d="M24.1834 12.3822C22.8468 13.4368 21.1352 14.0711 19.272 14.0711C18.6271 14.0711 18.0003 13.995 17.4011 13.8521C18.4726 15.4139 19.097 17.2809 19.097 19.2851V22.2286C19.097 23.3296 18.6771 24.3379 17.9836 25.1166H24.9832C26.6467 25.1166 28 23.8212 28 22.2286V19.2851C28 16.4202 26.4856 13.8879 24.1834 12.3822Z" fill="#000000"/>
<path d="M8.72825 12.5006C12.0875 12.5006 14.8204 9.88465 14.8204 6.66912C14.8204 3.45338 12.0875 0.837402 8.72825 0.837402C5.36903 0.837402 2.63615 3.45338 2.63615 6.66912C2.63615 9.88465 5.36903 12.5006 8.72825 12.5006Z" fill="#000000"/>
<path d="M19.2717 12.5006C22.6309 12.5006 25.364 9.88465 25.364 6.66912C25.364 3.45338 22.6309 0.837402 19.2717 0.837402C17.6467 0.837402 16.1684 1.44963 15.0749 2.44568C15.9479 3.64437 16.4609 5.10031 16.4609 6.66912C16.4609 8.23772 15.9479 9.69366 15.0749 10.8924C16.1684 11.8884 17.6467 12.5006 19.2717 12.5006Z" fill="#000000"/>
<path d="M13.6396 12.3822C12.3032 13.4368 10.5917 14.0711 8.72822 14.0711C6.86478 14.0711 5.15323 13.437 3.81659 12.3822C1.51438 13.8879 0 16.4202 0 19.2851V22.2286C0 23.8212 1.3533 25.1166 3.017 25.1166H14.4392C16.1029 25.1166 17.4562 23.8212 17.4562 22.2286V19.2851C17.4562 16.4202 15.9421 13.8879 13.6396 12.3822Z" fill="#000000"/>
</svg>
