<svg width="28" height="28" viewBox="0 0 28 28" fill="none" xmlns="http://www.w3.org/2000/svg">
<path d="M26.7273 10.4874H24.8022C24.6675 10.1318 24.5124 9.7828 24.3375 9.44186L25.6993 8.17018C26.1964 7.70611 26.1964 6.95356 25.6994 6.48941L22.0996 3.12789C21.8609 2.90501 21.5372 2.77974 21.1996 2.77974C20.8621 2.77974 20.5384 2.90493 20.2997 3.12789L18.9378 4.39957C18.5727 4.23635 18.199 4.09151 17.8182 3.96569V2.16798C17.8182 1.51162 17.2483 0.979492 16.5455 0.979492H11.4545C10.7517 0.979492 10.1818 1.51162 10.1818 2.16798V3.96569C9.80102 4.09151 9.42726 4.23635 9.06224 4.39957L7.70034 3.12789C7.20338 2.66374 6.39749 2.66374 5.90045 3.12789L2.30058 6.48933C2.06182 6.71222 1.92776 7.01449 1.92776 7.32976C1.92776 7.64494 2.06182 7.94722 2.30058 8.1701L3.6624 9.44186C3.48761 9.7828 3.33259 10.1318 3.19785 10.4874H1.27273C0.569842 10.4874 0 11.0195 0 11.6759V16.4299C0 17.0862 0.569842 17.6184 1.27273 17.6184H3.19785C3.33259 17.974 3.48761 18.323 3.6624 18.6639L2.30058 19.9357C2.06182 20.1586 1.92776 20.4608 1.92776 20.776C1.92776 21.0913 2.06182 21.3936 2.30058 21.6164L5.90053 24.978C6.39758 25.442 7.20338 25.442 7.70042 24.978L9.06233 23.7063C9.42735 23.8695 9.8011 24.0143 10.1818 24.1402V25.9378C10.1818 26.5942 10.7517 27.1263 11.4545 27.1263H16.5455C17.2483 27.1263 17.8182 26.5942 17.8182 25.9378V24.1401C18.199 24.0143 18.5727 23.8694 18.9378 23.7062L20.2997 24.9779C20.7968 25.442 21.6026 25.442 22.0996 24.9779L25.6994 21.6164C26.1965 21.1522 26.1965 20.3997 25.6994 19.9356L24.3376 18.6639C24.5125 18.323 24.6676 17.9739 24.8023 17.6184H26.7273C27.4302 17.6184 28 17.0862 28 16.4299V11.6759C28 11.0195 27.4302 10.4874 26.7273 10.4874ZM14 18.8069C11.1929 18.8069 8.90909 16.6742 8.90909 14.0529C8.90909 11.4316 11.1929 9.29893 14 9.29893C16.8071 9.29893 19.0909 11.4316 19.0909 14.0529C19.0909 16.6742 16.8071 18.8069 14 18.8069Z" fill="#000000"/>
</svg>
